<svg width="61" height="60" viewBox="0 0 61 60" fill="none" xmlns="http://www.w3.org/2000/svg">
<path d="M33.2945 35.5804C36.6993 35.1127 38.9718 35.1256 40.7297 35.3933C42.4827 35.6602 43.7369 36.1818 45.1182 36.7581C46.29 37.3367 47.8172 38.4524 48.6278 39.9111C49.0312 40.6372 49.2541 41.4423 49.1756 42.3092C49.0971 43.1758 48.7155 44.1266 47.8718 45.141C46.1781 47.1777 43.8036 48.2964 41.4395 48.8108C39.074 49.3255 36.7405 49.2302 35.1578 48.8594C33.2068 48.4024 30.0742 47.2838 27.2702 45.5148C24.4598 43.7416 22.0274 41.3459 21.3883 38.3521C20.745 35.3387 21.578 32.9218 22.8555 31.1045C23.8078 29.7498 25.0069 28.7296 26.0231 28.0532C25.5481 28.888 25.1366 29.9617 24.9502 31.0491C24.6806 32.6216 24.8693 34.3164 26.1431 35.3327C26.8053 35.861 27.8384 36.0138 29.0437 35.9993C30.2617 35.9845 31.7234 35.7962 33.2945 35.5804Z" fill="#86D1D0" stroke="#86D1D0" stroke-width="0.5"/>
<path d="M24.8099 44.9851L24.8097 44.9853L24.8179 44.9918C25.7839 45.7627 29.4975 48.3522 34.384 49.6136C36.7613 50.2273 39.5389 50.1475 42.0391 49.7845C43.3703 49.5913 44.6298 49.3167 45.7172 49.0197C44.2663 49.7635 42.4947 50.5427 40.6162 51.2066C37.6378 52.2593 34.4202 53.0116 31.8026 52.8899C28.8769 52.7538 26.9314 52.6091 25.1917 52.1497C23.4596 51.6924 21.9187 50.9192 19.8167 49.5038C18.173 48.397 16.877 46.6224 15.9239 44.8341C14.9721 43.0484 14.3745 41.2722 14.1168 40.1892C14.0588 39.9453 13.9207 39.7041 13.7457 39.5138C13.5722 39.3251 13.3404 39.163 13.08 39.1149C12.8022 39.0637 12.5198 39.1484 12.2965 39.4034C12.0863 39.6435 11.9385 40.0216 11.8579 40.549C11.4561 42.5553 11.4025 43.8215 11.4301 44.2247C11.4551 44.5886 11.3765 44.9046 11.2494 45.1315C11.1197 45.363 10.9557 45.4776 10.8189 45.5007C10.6988 45.5209 10.5322 45.4813 10.3531 45.2434C10.1697 44.9999 9.99262 44.5673 9.88997 43.8723C9.64964 40.3454 10.1723 37.2127 10.6499 35.6374C10.8606 35.1216 10.9145 34.2929 10.8909 33.5407C10.8788 33.1548 10.8458 32.7762 10.7981 32.4504C10.7512 32.1297 10.6878 31.843 10.6086 31.6504C10.4335 31.2246 9.91632 30.8479 9.29866 30.9248C8.66911 31.0033 8.02734 31.5348 7.5308 32.725C7.42113 32.9879 7.35528 33.3277 7.31172 33.6799C7.26769 34.036 7.24437 34.4236 7.22733 34.7903C7.22136 34.919 7.21618 35.0443 7.21119 35.165C7.20178 35.3926 7.19305 35.6039 7.18092 35.7905C7.17171 35.9323 7.16087 36.0539 7.14713 36.1518C7.13275 36.2545 7.11745 36.3135 7.10626 36.3403C6.94568 36.7252 6.65769 36.8889 6.39349 36.8695C6.12622 36.8498 5.77707 36.6341 5.5297 36.0328C5.43034 35.7912 5.37847 35.4028 5.38259 34.8769C5.38666 34.3579 5.4447 33.7306 5.54649 33.028C5.74998 31.6234 6.12528 29.938 6.57591 28.254C7.02635 26.5706 7.55059 24.8941 8.05025 23.5083C8.55322 22.1133 9.02251 21.0381 9.35899 20.5384C10.4788 18.8755 11.6001 18.133 11.9787 17.9774C12.1254 17.9171 12.2926 17.87 12.4457 17.8566C12.6034 17.8428 12.7131 17.8673 12.7776 17.9107C12.8278 17.9445 12.8888 18.015 12.8937 18.2022C12.8989 18.3996 12.8388 18.7032 12.6522 19.1504C12.2523 20.1088 12.2227 20.8547 12.4585 21.4282C12.6943 22.0016 13.1729 22.3473 13.6699 22.5547C14.0848 22.7277 14.6696 22.818 15.2867 22.5317C15.9009 22.2467 16.5023 21.6092 16.9978 20.4215C17.6639 18.8247 18.2126 16.9378 18.7477 15.0976C18.9138 14.5266 19.0785 13.96 19.245 13.408C19.5983 12.2372 19.96 11.1294 20.3611 10.1682C20.7631 9.2046 21.1982 8.40403 21.6919 7.83776C23.7008 5.5333 26.6772 4.66956 30.0187 5.53469C31.6481 5.95653 32.3777 6.90425 32.6395 7.75228C32.7724 8.1825 32.7857 8.58972 32.7325 8.89665C32.7058 9.0505 32.6637 9.17154 32.6178 9.25541C32.5694 9.3438 32.5304 9.36717 32.5229 9.37027C32.1741 9.5137 29.3978 10.9458 26.6333 12.8497C25.2492 13.803 23.8582 14.881 22.7718 15.9823C21.6936 17.0753 20.8794 18.2265 20.7126 19.3281C20.462 20.9831 20.7827 21.944 21.4802 22.3697C22.1496 22.7781 23.038 22.6041 23.7075 22.3287C24.0478 22.1888 24.5091 21.9554 24.9287 21.7128C25.3405 21.4747 25.7435 21.21 25.9453 21.0043C26.8713 20.0602 27.5329 19.7125 27.9915 19.6076C28.437 19.5056 28.7221 19.6242 28.9404 19.7153C29.7694 20.0611 30.1127 20.551 30.1942 21.0839C30.2793 21.641 30.0877 22.3014 29.7189 22.9862C28.9822 24.3538 27.6201 25.6703 26.9004 26.1496C25.8691 26.8365 24.3168 27.9215 22.9771 29.4092C21.6368 30.8975 20.4962 32.8033 20.3138 35.1309C20.1498 37.2233 20.4512 38.9793 21.2127 40.572C21.9726 42.1613 23.1826 43.5714 24.8099 44.9851Z" fill="#13A5BF" stroke="#13A5BF" stroke-width="0.5"/>
<circle cx="30.3844" cy="16.2545" r="1.75" transform="rotate(22.6452 30.3844 16.2545)" fill="#13A5BF" stroke="#13A5BF" stroke-width="0.5"/>
</svg>
