<svg width="145" height="71" viewBox="0 0 145 71" fill="none" xmlns="http://www.w3.org/2000/svg">
<path d="M32.2886 38C32.995 35.391 33.7754 32.742 34.6299 30.0532C35.4844 27.3644 36.5439 24.1515 37.8086 20.4146C39.0846 16.6662 39.9562 14.0742 40.4233 12.6387C40.5601 12.4108 40.6512 12.2741 40.6968 12.2285H43.5679C44.2401 12.2285 45.2313 12.2171 46.5415 12.1943C47.8517 12.1715 48.8429 12.1602 49.5151 12.1602H52.3862C52.5571 12.1602 52.6995 12.1659 52.8135 12.1772C52.9274 12.1772 53.0641 12.1886 53.2236 12.2114C53.3831 12.2342 53.5085 12.2684 53.5996 12.314C53.7021 12.3595 53.7876 12.4279 53.856 12.519C53.9243 12.6102 53.9585 12.7184 53.9585 12.8438L61.8369 37.812C61.8369 38.0399 61.7515 38.1937 61.5806 38.2734C61.4211 38.3646 61.1134 38.4102 60.6577 38.4102H59.0854C58.6297 38.4102 57.9518 38.4159 57.0518 38.4272C56.1517 38.4386 55.4738 38.4443 55.0181 38.4443C54.8813 38.4443 54.6022 38.45 54.1807 38.4614C53.7705 38.4842 53.423 38.4899 53.1382 38.4785C52.8534 38.4785 52.5343 38.4614 52.1812 38.4272C51.8394 38.4045 51.5602 38.3418 51.3438 38.2393C51.1387 38.1481 51.0076 38.0228 50.9507 37.8633V36.7354C50.8368 36.1657 50.6374 35.6416 50.3525 35.1631C50.0677 34.6846 49.7658 34.4453 49.4468 34.4453H43.5679L42.6792 38.0684C42.5539 38.3418 41.9159 38.4785 40.7651 38.4785H39.3979C38.908 38.4785 38.1789 38.4956 37.2104 38.5298C36.242 38.564 35.5129 38.5811 35.0229 38.5811H34.5444C34.3621 38.5811 34.0716 38.5868 33.6729 38.5981C33.2855 38.6095 32.9836 38.6152 32.7671 38.6152C32.6759 38.5241 32.5164 38.319 32.2886 38ZM44.1489 27.6265L44.6274 28.4297H45.7554C46.6668 28.4297 47.4985 28.3784 48.2505 28.2759C49.0138 28.1619 49.3955 27.9854 49.3955 27.7461L47.1909 17.9023C46.9858 17.9023 46.7067 18.2897 46.3535 19.0645C46.0117 19.8392 45.7326 20.7165 45.5161 21.6963L44.1489 27.6265ZM61.7856 25.2168C61.7856 23.2799 62.0477 21.5311 62.5718 19.9702C63.0959 18.4093 63.7965 17.1105 64.6738 16.0737C65.5625 15.0369 66.6107 14.1711 67.8184 13.4761C69.026 12.7697 70.285 12.2684 71.5952 11.9722C72.9054 11.6646 74.284 11.5107 75.731 11.5107C77.7134 11.5107 79.5135 11.8468 81.1313 12.519C82.7606 13.1912 84.105 14.1141 85.1646 15.2876C86.2355 16.4497 87.0615 17.8226 87.6426 19.4062C88.2236 20.9899 88.5142 22.6989 88.5142 24.5332C88.5142 25.7523 88.3376 26.96 87.9844 28.1562C87.6312 29.3525 87.1356 30.3779 86.4976 31.2324C86.6457 31.2324 86.8678 31.2267 87.1641 31.2153C87.4603 31.2039 87.6825 31.1982 87.8306 31.1982C88.7876 31.1982 89.2661 31.5514 89.2661 32.2578V38.0684C89.2547 38.2507 89.1921 38.3931 89.0781 38.4956C88.9756 38.5981 88.8104 38.6836 88.5825 38.752C87.6825 38.5924 86.1102 38.5127 83.8657 38.5127C82.6922 38.5127 81.1029 38.6209 79.0977 38.8374C77.1038 39.0539 75.617 39.1621 74.6372 39.1621C70.0343 39.1621 66.6392 37.3848 64.4517 33.8301C63.5402 32.9186 62.868 31.654 62.4351 30.0361C62.0021 28.4183 61.7856 26.8118 61.7856 25.2168ZM71.6978 25.5586C71.6978 26.0371 71.6978 26.4302 71.6978 26.7378C71.7091 27.0454 71.7319 27.467 71.7661 28.0024C71.8117 28.5379 71.8743 28.988 71.9541 29.3525C72.0339 29.7171 72.1478 30.1159 72.2959 30.5488C72.4554 30.9818 72.6434 31.3293 72.8599 31.5913C73.0877 31.8534 73.3726 32.0755 73.7144 32.2578C74.0562 32.4401 74.4435 32.5312 74.8765 32.5312V32.1211C74.8765 32.0755 74.9334 32.0527 75.0474 32.0527C75.1043 32.0527 75.2012 32.0641 75.3379 32.0869C75.4746 32.1097 75.5715 32.1211 75.6284 32.1211C76.0955 32.1211 76.5 31.9958 76.8418 31.7451C77.195 31.4831 77.4684 31.1242 77.6621 30.6685C77.8558 30.2127 78.0153 29.7456 78.1406 29.2671C78.266 28.7772 78.3457 28.2303 78.3799 27.6265C78.4141 27.0112 78.4312 26.5099 78.4312 26.1226C78.4425 25.7238 78.4425 25.2965 78.4312 24.8408L78.397 24.1572C78.397 23.6445 78.3856 23.1888 78.3628 22.79C78.34 22.3799 78.2944 21.9242 78.2261 21.4229C78.1577 20.9102 78.0438 20.4715 77.8843 20.1069C77.7362 19.731 77.5482 19.3778 77.3203 19.0474C77.1038 18.717 76.8076 18.4663 76.4316 18.2954C76.0671 18.1245 75.6512 18.0391 75.1841 18.0391C74.7056 18.0391 74.2726 18.153 73.8853 18.3809C73.4979 18.6087 73.1789 18.9277 72.9282 19.3379C72.689 19.748 72.4839 20.1981 72.313 20.688C72.1421 21.1665 72.0111 21.7077 71.9199 22.3115C71.8402 22.904 71.7832 23.4565 71.749 23.9692C71.7148 24.4705 71.6978 25.0003 71.6978 25.5586ZM90.7358 29.4893C90.7814 23.8838 90.8042 19.7025 90.8042 16.9453V16.7402C90.8042 16.6605 90.7928 16.3813 90.77 15.9028C90.7472 15.4129 90.7358 14.9971 90.7358 14.6553C90.7358 13.2881 90.8498 12.5133 91.0776 12.3311C91.1346 12.3311 91.2201 12.3368 91.334 12.3481C91.4479 12.3595 91.5334 12.3652 91.5903 12.3652C93.5044 12.2741 95.7261 12.2285 98.2554 12.2285H100.58C100.671 12.2399 100.79 12.2798 100.938 12.3481C101.098 12.4051 101.206 12.4336 101.263 12.4336C101.275 12.9919 101.297 13.9546 101.332 15.3218C101.377 16.689 101.406 17.8739 101.417 18.8765C101.44 19.8791 101.445 20.8646 101.434 21.833V28.498C101.434 28.9196 101.445 29.2614 101.468 29.5234C101.491 29.7855 101.542 30.0931 101.622 30.4463C101.713 30.7995 101.867 31.0672 102.083 31.2495C102.311 31.4204 102.596 31.5059 102.938 31.5059C103.417 31.5059 103.804 31.3065 104.1 30.9077C104.396 30.4976 104.544 30.0247 104.544 29.4893V23.2344C104.533 22.471 104.539 21.269 104.562 19.6284C104.596 17.9878 104.601 16.7061 104.579 15.7832V14.5527C104.579 14.4274 104.567 14.2394 104.544 13.9888C104.522 13.7267 104.51 13.5273 104.51 13.3906V12.5703C104.544 12.3083 104.693 12.1488 104.955 12.0918C107.142 12.0918 110.423 12.1146 114.798 12.1602V12.4336H115.55C115.459 14.8604 115.414 17.6859 115.414 20.9102V24.7383C115.414 25.251 115.402 26.0371 115.379 27.0967C115.357 28.1562 115.345 28.9424 115.345 29.4551C115.345 30.9362 115.112 32.2464 114.645 33.3857C114.177 34.5251 113.562 35.4422 112.799 36.1372C112.035 36.8322 111.113 37.4019 110.03 37.8462C108.948 38.2905 107.854 38.5981 106.749 38.769C105.644 38.9399 104.453 39.0254 103.177 39.0254C101.947 39.0254 100.79 38.9456 99.708 38.7861C98.637 38.638 97.549 38.3475 96.4438 37.9146C95.3387 37.4702 94.3874 36.9062 93.5898 36.2227C92.7923 35.5391 92.1315 34.6219 91.6074 33.4712C91.0833 32.3205 90.7928 30.9932 90.7358 29.4893ZM115.243 38C115.949 35.391 116.729 32.742 117.584 30.0532C118.438 27.3644 119.498 24.1515 120.763 20.4146C122.039 16.6662 122.91 14.0742 123.377 12.6387C123.514 12.4108 123.605 12.2741 123.651 12.2285H126.522C127.194 12.2285 128.185 12.2171 129.496 12.1943C130.806 12.1715 131.797 12.1602 132.469 12.1602H135.34C135.511 12.1602 135.654 12.1659 135.768 12.1772C135.882 12.1772 136.018 12.1886 136.178 12.2114C136.337 12.2342 136.463 12.2684 136.554 12.314C136.656 12.3595 136.742 12.4279 136.81 12.519C136.878 12.6102 136.913 12.7184 136.913 12.8438L144.791 37.812C144.791 38.0399 144.706 38.1937 144.535 38.2734C144.375 38.3646 144.068 38.4102 143.612 38.4102H142.04C141.584 38.4102 140.906 38.4159 140.006 38.4272C139.106 38.4386 138.428 38.4443 137.972 38.4443C137.835 38.4443 137.556 38.45 137.135 38.4614C136.725 38.4842 136.377 38.4899 136.092 38.4785C135.807 38.4785 135.488 38.4614 135.135 38.4272C134.793 38.4045 134.514 38.3418 134.298 38.2393C134.093 38.1481 133.962 38.0228 133.905 37.8633V36.7354C133.791 36.1657 133.591 35.6416 133.307 35.1631C133.022 34.6846 132.72 34.4453 132.401 34.4453H126.522L125.633 38.0684C125.508 38.3418 124.87 38.4785 123.719 38.4785H122.352C121.862 38.4785 121.133 38.4956 120.165 38.5298C119.196 38.564 118.467 38.5811 117.977 38.5811H117.499C117.316 38.5811 117.026 38.5868 116.627 38.5981C116.24 38.6095 115.938 38.6152 115.721 38.6152C115.63 38.5241 115.471 38.319 115.243 38ZM127.103 27.6265L127.582 28.4297H128.709C129.621 28.4297 130.453 28.3784 131.205 28.2759C131.968 28.1619 132.35 27.9854 132.35 27.7461L130.145 17.9023C129.94 17.9023 129.661 18.2897 129.308 19.0645C128.966 19.8392 128.687 20.7165 128.47 21.6963L127.103 27.6265Z" fill="white"/>
<path d="M71.7614 53.457C71.623 54.6777 71.3016 55.7601 70.797 56.7041C70.2924 57.64 69.6455 58.4049 68.8561 58.999C68.0667 59.585 67.1674 60.0285 66.1583 60.3296C65.1573 60.6307 64.0628 60.7812 62.8746 60.7812C61.7679 60.7812 60.7587 60.6592 59.8473 60.415C58.9358 60.179 58.1668 59.8617 57.5402 59.4629C56.9135 59.0641 56.3601 58.5799 55.88 58.0103C55.3999 57.4325 55.0174 56.8424 54.7325 56.2402C54.4477 55.6299 54.2158 54.9666 54.0367 54.2505C53.8658 53.5262 53.7478 52.8548 53.6827 52.2363C53.6258 51.6097 53.5973 50.9587 53.5973 50.2832V49.209C53.6787 48.0208 53.9554 46.9548 54.4274 46.0107C54.8994 45.0586 55.4731 44.2936 56.1486 43.7158C56.824 43.1299 57.5971 42.6457 58.4679 42.2632C59.3387 41.8726 60.185 41.604 61.007 41.4575C61.8289 41.3029 62.6468 41.2256 63.4606 41.2256C64.7708 41.2256 65.9264 41.3843 66.9274 41.7017C67.9365 42.0109 68.7584 42.4504 69.3932 43.02C70.028 43.5897 70.5244 44.2448 70.8824 44.9854C71.2405 45.7178 71.4684 46.5397 71.566 47.4512V48.623C71.566 48.8835 70.6709 49.0137 68.8805 49.0137C68.4573 49.0137 67.8673 49.0055 67.1105 48.9893C66.3618 48.973 65.8694 48.9648 65.6334 48.9648C65.5927 48.9648 65.5317 48.9689 65.4503 48.9771C65.3689 48.9852 65.3079 48.9893 65.2672 48.9893C65.0556 48.9893 64.8929 48.9038 64.7789 48.7329C64.6731 48.5539 64.5999 48.3382 64.5592 48.0859C64.5267 47.8337 64.4819 47.5814 64.4249 47.3291C64.3761 47.0768 64.2662 46.8652 64.0953 46.6943C63.9326 46.5153 63.7047 46.4258 63.4117 46.4258C63.1188 46.4258 62.8624 46.4746 62.6427 46.5723C62.423 46.6699 62.248 46.8245 62.1178 47.0361C61.9876 47.2396 61.8777 47.4471 61.7882 47.6587C61.7068 47.8703 61.6458 48.147 61.6051 48.4888C61.5726 48.8224 61.5481 49.1073 61.5319 49.3433C61.5237 49.5711 61.5156 49.8804 61.5074 50.271C61.4993 50.6535 61.4912 50.9342 61.483 51.1133C61.483 51.2109 61.4749 51.39 61.4586 51.6504C61.4423 51.9108 61.4342 52.1224 61.4342 52.2852C61.4342 54.3115 61.9713 55.3532 63.0455 55.4102C63.3385 55.4102 63.5786 55.3044 63.7657 55.0928C63.9529 54.8812 64.0791 54.6452 64.1442 54.3848C64.2174 54.1243 64.2988 53.8517 64.3883 53.5669C64.4778 53.2739 64.5755 53.0745 64.6813 52.9688H71.3219C71.5905 52.9932 71.7369 53.1559 71.7614 53.457ZM91.0485 60.0488C90.8694 60.2279 90.491 60.3337 89.9132 60.3662C89.3435 60.3988 88.6396 60.3906 87.8014 60.3418C86.9632 60.293 86.5156 60.2686 86.4586 60.2686C85.9052 60.2686 85.5065 60.2604 85.2623 60.2441H84.0416C83.8626 60.1872 83.712 59.9227 83.59 59.4507C83.4679 58.9705 83.3458 58.2869 83.2238 57.3999C83.1098 56.5047 83.0488 56.0286 83.0406 55.9717C83.0081 55.166 82.8779 54.637 82.65 54.3848C82.4222 54.1243 82.0071 53.9941 81.4049 53.9941H80.8678V59.9512C80.8515 60.0488 80.7661 60.1302 80.6115 60.1953C80.4568 60.2604 80.233 60.3011 79.9401 60.3174C79.6552 60.3418 79.3989 60.354 79.171 60.354C78.9513 60.3621 78.6583 60.3621 78.2921 60.354C77.9259 60.3459 77.7021 60.3418 77.6207 60.3418H75.8629C74.8701 60.3418 74.1214 60.3499 73.6168 60.3662C73.5029 60.3174 73.389 60.2604 73.275 60.1953V41.9824C73.275 41.7546 73.6005 41.6406 74.2516 41.6406H84.8961C86.7434 41.6895 88.1473 42.1289 89.1075 42.959C90.076 43.7891 90.5602 44.9609 90.5602 46.4746C90.5602 48.444 89.5673 49.8844 87.5817 50.7959C87.9479 50.9098 88.2775 51.0685 88.5704 51.272C88.8634 51.4754 89.1075 51.6951 89.3029 51.9312C89.4982 52.159 89.6691 52.4357 89.8156 52.7612C89.962 53.0868 90.076 53.3919 90.1573 53.6768C90.2387 53.9616 90.3079 54.2993 90.3649 54.6899C90.43 55.0806 90.4747 55.4183 90.4991 55.7031C90.5236 55.988 90.552 56.3298 90.5846 56.7285C90.6253 57.1191 90.6578 57.4284 90.6823 57.6562V58.7305C90.7067 58.8607 90.7799 59.0438 90.902 59.2798C91.0322 59.5158 91.1136 59.6908 91.1461 59.8047C91.1461 59.9674 91.1136 60.0488 91.0485 60.0488ZM80.7946 46.8164C80.7946 47.3047 80.7986 47.6668 80.8068 47.9028C80.8149 48.1388 80.8597 48.4481 80.941 48.8306C81.0224 49.2131 81.1445 49.4857 81.3073 49.6484C81.649 49.6484 81.9705 49.6118 82.2716 49.5386C82.5809 49.4653 82.8779 49.3473 83.1627 49.1846C83.4476 49.0218 83.6713 48.7817 83.8341 48.4644C84.005 48.1388 84.0905 47.7523 84.0905 47.3047C84.0905 47.0524 84.0457 46.8327 83.9562 46.6455C83.8667 46.4502 83.7365 46.2956 83.5656 46.1816C83.3947 46.0677 83.2238 45.9782 83.0529 45.9131C82.8901 45.8398 82.6866 45.791 82.4425 45.7666C82.2065 45.734 82.0193 45.7137 81.881 45.7056C81.7426 45.6974 81.5758 45.6934 81.3805 45.6934H81.0875C80.9655 45.7503 80.8841 45.8643 80.8434 46.0352C80.8108 46.2061 80.7946 46.4665 80.7946 46.8164ZM90.5602 60C91.0647 58.1364 91.6222 56.2443 92.2325 54.3237C92.8429 52.4032 93.5997 50.1082 94.5031 47.439C95.4145 44.7616 96.0371 42.9102 96.3707 41.8848C96.4684 41.722 96.5335 41.6243 96.566 41.5918H98.6168C99.097 41.5918 99.805 41.5837 100.741 41.5674C101.677 41.5511 102.385 41.543 102.865 41.543H104.916C105.038 41.543 105.139 41.547 105.221 41.5552C105.302 41.5552 105.4 41.5633 105.514 41.5796C105.628 41.5959 105.717 41.6203 105.782 41.6528C105.856 41.6854 105.917 41.7342 105.965 41.7993C106.014 41.8644 106.039 41.9417 106.039 42.0312L111.666 59.8657C111.666 60.0285 111.605 60.1383 111.483 60.1953C111.369 60.2604 111.149 60.293 110.824 60.293H109.701C109.375 60.293 108.891 60.297 108.248 60.3052C107.605 60.3133 107.121 60.3174 106.796 60.3174C106.698 60.3174 106.498 60.3215 106.197 60.3296C105.904 60.3459 105.656 60.3499 105.453 60.3418C105.249 60.3418 105.021 60.3296 104.769 60.3052C104.525 60.2889 104.326 60.2441 104.171 60.1709C104.025 60.1058 103.931 60.0163 103.89 59.9023V59.0967C103.809 58.6898 103.666 58.3154 103.463 57.9736C103.26 57.6318 103.044 57.4609 102.816 57.4609H98.6168L97.9821 60.0488C97.8925 60.2441 97.4368 60.3418 96.6149 60.3418H95.6383C95.2884 60.3418 94.7675 60.354 94.0758 60.3784C93.3841 60.4028 92.8632 60.415 92.5133 60.415H92.1715C92.0413 60.415 91.8338 60.4191 91.549 60.4272C91.2723 60.4354 91.0566 60.4395 90.902 60.4395C90.8369 60.3743 90.7229 60.2279 90.5602 60ZM99.0319 52.5903L99.3737 53.1641H100.179C100.83 53.1641 101.424 53.1274 101.962 53.0542C102.507 52.9728 102.779 52.8467 102.779 52.6758L101.205 45.6445C101.058 45.6445 100.859 45.9212 100.607 46.4746C100.362 47.028 100.163 47.6546 100.008 48.3545L99.0319 52.5903ZM112.362 58.291V41.9824C112.362 41.7057 112.997 41.5674 114.266 41.5674C114.405 41.5674 114.6 41.5715 114.852 41.5796C115.113 41.5877 115.292 41.5918 115.389 41.5918C116.032 41.5918 116.988 41.5796 118.258 41.5552C119.536 41.5308 120.5 41.5186 121.151 41.5186C121.599 41.5186 122.262 41.5267 123.141 41.543C124.028 41.5592 124.715 41.5674 125.204 41.5674C125.269 41.5674 125.366 41.5633 125.497 41.5552C125.627 41.547 125.725 41.543 125.79 41.543C126.083 41.543 126.286 41.5999 126.4 41.7139C126.514 41.8197 126.571 42.0312 126.571 42.3486V46.6211C126.099 46.6618 125.607 46.6903 125.094 46.7065C124.581 46.7147 123.93 46.7228 123.141 46.731C122.351 46.7391 121.859 46.7432 121.664 46.7432H119.979C119.979 46.8978 119.975 47.1216 119.967 47.4146C119.959 47.7075 119.955 47.9313 119.955 48.0859V48.2568C119.971 48.2894 119.979 48.3464 119.979 48.4277C121.826 48.2975 123.389 48.2324 124.667 48.2324C125.049 48.2324 125.387 48.2609 125.68 48.3179C125.981 48.3748 126.131 48.4603 126.131 48.5742V52.6514C126.131 53.0094 126.062 53.2495 125.924 53.3716C125.786 53.4937 125.57 53.5547 125.277 53.5547C125.212 53.5547 125.094 53.5465 124.923 53.5303C124.752 53.514 124.618 53.5059 124.52 53.5059C122.868 53.6117 121.363 53.6768 120.004 53.7012C120.004 54.1976 120.016 54.9463 120.04 55.9473C120.065 56.9482 120.077 57.6969 120.077 58.1934V59.707C120.077 59.943 120.052 60.0977 120.004 60.1709C119.955 60.2523 119.833 60.3092 119.637 60.3418C118.856 60.3418 117.7 60.3499 116.171 60.3662C114.641 60.3825 113.485 60.3906 112.704 60.3906C112.639 60.293 112.582 60.1872 112.533 60.0732C112.492 59.9593 112.46 59.8576 112.435 59.7681C112.411 59.6785 112.39 59.5565 112.374 59.4019C112.366 59.2391 112.358 59.1252 112.35 59.0601C112.35 58.9868 112.35 58.8525 112.35 58.6572C112.358 58.4619 112.362 58.3398 112.362 58.291ZM126.376 45.376C126.376 45.2295 126.384 45.0138 126.4 44.729C126.416 44.436 126.424 44.2367 126.424 44.1309C126.424 44.0902 126.416 43.9437 126.4 43.6914C126.384 43.4391 126.376 43.2194 126.376 43.0322C126.376 42.1696 126.457 41.7383 126.62 41.7383C126.685 41.7383 126.742 41.7464 126.791 41.7627C128.491 41.7627 131.01 41.7424 134.347 41.7017C137.692 41.661 140.194 41.6406 141.854 41.6406C142.269 41.6406 142.53 41.6772 142.635 41.7505C142.749 41.8237 142.806 41.9661 142.806 42.1777V42.5195C142.806 42.9427 142.81 43.5693 142.818 44.3994C142.827 45.2214 142.831 45.848 142.831 46.2793C142.831 46.7025 142.717 46.9141 142.489 46.9141C142.033 46.9141 141.354 46.9059 140.45 46.8896C139.547 46.8734 138.867 46.8652 138.412 46.8652V59.9512C138.355 60.1953 138.216 60.3255 137.997 60.3418C137.712 60.3418 137.297 60.3377 136.752 60.3296C136.206 60.3215 135.791 60.3174 135.506 60.3174C135.49 60.3174 135.474 60.3255 135.458 60.3418C135.1 60.3418 134.595 60.3377 133.944 60.3296C133.301 60.3215 132.821 60.3174 132.504 60.3174H131.771C131.608 60.3337 131.372 60.3418 131.063 60.3418L130.575 59.7559C130.575 58.5189 130.616 56.6797 130.697 54.2383C130.778 51.7969 130.819 49.9577 130.819 48.7207C130.819 48.6637 130.815 48.5701 130.807 48.4399C130.807 48.3097 130.807 48.2039 130.807 48.1226C130.807 48.0412 130.799 47.9395 130.782 47.8174C130.774 47.6953 130.754 47.5977 130.721 47.5244C130.697 47.443 130.664 47.3657 130.624 47.2925C130.583 47.2111 130.526 47.1541 130.453 47.1216C130.388 47.0809 130.306 47.0605 130.209 47.0605H126.717C126.49 46.9954 126.376 46.4339 126.376 45.376Z" fill="white"/>
<path d="M33.2945 43.2481C36.6993 42.7805 38.9717 42.7934 40.7297 43.061C42.4826 43.3279 43.7369 43.8496 45.1182 44.4258C46.29 45.0044 47.8171 46.1201 48.6277 47.5789C49.0311 48.3049 49.2541 49.11 49.1756 49.977C49.0971 50.8435 48.7154 51.7943 47.8718 52.8088C46.178 54.8454 43.8036 55.9641 41.4394 56.4785C39.0739 56.9932 36.7404 56.8979 35.1578 56.5272C33.2067 56.0702 30.0741 54.9515 27.2702 53.1825C24.4597 51.4094 22.0273 49.0136 21.3882 46.0198C20.745 43.0064 21.5779 40.5895 22.8554 38.7722C23.8077 37.4175 25.0069 36.3973 26.0231 35.7209C25.548 36.5557 25.1365 37.6295 24.9501 38.7168C24.6806 40.2893 24.8692 41.9841 26.1431 43.0005C26.8052 43.5287 27.8383 43.6815 29.0436 43.667C30.2616 43.6523 31.7234 43.4639 33.2945 43.2481Z" fill="#86D1D0" stroke="#86D1D0" stroke-width="0.5"/>
<path d="M24.8098 52.6528L24.8097 52.653L24.8179 52.6595C25.7838 53.4304 29.4974 56.0199 34.3839 57.2813C36.7612 57.895 39.5388 57.8152 42.0391 57.4523C43.3703 57.259 44.6298 56.9844 45.7172 56.6874C44.2662 57.4313 42.4946 58.2104 40.6161 58.8743C37.6377 59.927 34.4202 60.6793 31.8025 60.5576C28.8769 60.4216 26.9313 60.2769 25.1916 59.8175C23.4595 59.3601 21.9187 58.5869 19.8167 57.1715C18.173 56.0647 16.877 54.2902 15.9238 52.5018C14.972 50.7161 14.3744 48.9399 14.1167 47.8569C14.0587 47.613 13.9207 47.3718 13.7457 47.1815C13.5721 46.9928 13.3403 46.8308 13.0799 46.7827C12.8022 46.7314 12.5197 46.8161 12.2965 47.0711C12.0862 47.3112 11.9384 47.6893 11.8579 48.2168C11.4561 50.223 11.4024 51.4893 11.4301 51.8924C11.455 52.2563 11.3765 52.5723 11.2494 52.7992C11.1197 53.0308 10.9556 53.1453 10.8189 53.1684C10.6987 53.1887 10.5322 53.1491 10.353 52.9111C10.1697 52.6676 9.99256 52.2351 9.88991 51.54C9.64958 48.0132 10.1722 44.8804 10.6498 43.3052C10.8605 42.7893 10.9145 41.9606 10.8908 41.2084C10.8787 40.8225 10.8457 40.444 10.7981 40.1181C10.7512 39.7974 10.6878 39.5108 10.6085 39.3181C10.4334 38.8924 9.91626 38.5156 9.2986 38.5926C8.66905 38.671 8.02728 39.2025 7.53074 40.3927C7.42107 40.6556 7.35522 40.9954 7.31166 41.3477C7.26763 41.7037 7.24431 42.0914 7.22727 42.4581C7.2213 42.5868 7.21612 42.712 7.21113 42.8327C7.20172 43.0604 7.19299 43.2716 7.18086 43.4583C7.17165 43.6 7.1608 43.7216 7.14707 43.8196C7.13269 43.9222 7.11738 43.9812 7.1062 44.008C6.94562 44.3929 6.65762 44.5566 6.39342 44.5372C6.12616 44.5175 5.77701 44.3018 5.52964 43.7005C5.43028 43.4589 5.37841 43.0705 5.38253 42.5446C5.3866 42.0256 5.44464 41.3983 5.54643 40.6958C5.74992 39.2911 6.12522 37.6058 6.57585 35.9217C7.02629 34.2384 7.55052 32.5619 8.05019 31.176C8.55316 29.781 9.02245 28.7058 9.35892 28.2062C10.4787 26.5432 11.6001 25.8008 11.9786 25.6451C12.1253 25.5848 12.2926 25.5378 12.4456 25.5244C12.6033 25.5106 12.713 25.535 12.7776 25.5785C12.8277 25.6122 12.8887 25.6827 12.8936 25.8699C12.8988 26.0674 12.8387 26.3709 12.6521 26.8181C12.2523 27.7766 12.2226 28.5225 12.4584 29.0959C12.6942 29.6693 13.1728 30.015 13.6699 30.2224C14.0847 30.3955 14.6696 30.4857 15.2867 30.1994C15.9009 29.9144 16.5022 29.2769 16.9977 28.0892C17.6638 26.4925 18.2125 24.6055 18.7476 22.7654C18.9137 22.1943 19.0784 21.6278 19.245 21.0758C19.5982 19.9049 19.96 18.7972 20.361 17.8359C20.763 16.8723 21.1982 16.0718 21.6918 15.5055C23.7007 13.201 26.6771 12.3373 30.0187 13.2024C31.6481 13.6243 32.3776 14.572 32.6395 15.42C32.7723 15.8502 32.7857 16.2574 32.7324 16.5644C32.7057 16.7182 32.6637 16.8393 32.6177 16.9231C32.5694 17.0115 32.5303 17.0349 32.5228 17.038C32.174 17.1814 29.3978 18.6135 26.6332 20.5175C25.2491 21.4707 23.8582 22.5488 22.7717 23.6501C21.6936 24.743 20.8793 25.8942 20.7125 26.9959C20.462 28.6508 20.7826 29.6117 21.4802 30.0374C22.1496 30.4458 23.0379 30.2718 23.7075 29.9965C24.0477 29.8565 24.5091 29.6231 24.9286 29.3805C25.3404 29.1424 25.7435 28.8777 25.9452 28.672C26.8712 27.728 27.5328 27.3803 27.9915 27.2753C28.437 27.1733 28.7221 27.2919 28.9403 27.383C29.7694 27.7288 30.1126 28.2187 30.1941 28.7516C30.2793 29.3087 30.0877 29.9691 29.7188 30.6539C28.9822 32.0215 27.6201 33.338 26.9004 33.8173C25.8691 34.5042 24.3167 35.5893 22.977 37.077C21.6368 38.5652 20.4962 40.471 20.3137 42.7986C20.1497 44.891 20.4512 46.647 21.2127 48.2397C21.9725 49.829 23.1826 51.2391 24.8098 52.6528Z" fill="#13A5BF" stroke="#13A5BF" stroke-width="0.5"/>
<circle cx="30.3843" cy="23.9223" r="1.75" transform="rotate(22.6452 30.3843 23.9223)" fill="#13A5BF" stroke="#13A5BF" stroke-width="0.5"/>
</svg>
